HIERARCHY
ROOT Hips
{
	OFFSET 0.000000 89.005402 0.000000
	CHANNELS 6 Xposition Yposition Zposition Xrotation Yrotation Zrotation
	JOINT Spine
	{
		OFFSET 0.116900 10.681000 0.373400
		CHANNELS 3 Xrotation Yrotation Zrotation
		JOINT Spine1
		{
			OFFSET 0.000000 13.840401 0.053500
			CHANNELS 3 Xrotation Yrotation Zrotation
			JOINT Spine2
			{
				OFFSET 0.000000 14.712700 -0.366200
				CHANNELS 3 Xrotation Yrotation Zrotation
				JOINT Neck
				{
					OFFSET 0.000000 35.415497 -3.314200
					CHANNELS 3 Xrotation Yrotation Zrotation
					JOINT Head
					{
						OFFSET 0.000000 16.899200 1.218300
						CHANNELS 3 Xrotation Yrotation Zrotation
						JOINT HeadTop_End
						{
							OFFSET 0.000000 22.206207 2.192500
							CHANNELS 3 Xrotation Yrotation Zrotation
							End Site
							{
								OFFSET 0.000000 22.314178 0.000000
							}
						}
					}
				}
				JOINT LeftShoulder
				{
					OFFSET 12.896400 26.716293 -4.548400
					CHANNELS 3 Xrotation Yrotation Zrotation
					JOINT LeftArm
					{
						OFFSET 19.027000 -4.857010 -1.718400
						CHANNELS 3 Xrotation Yrotation Zrotation
						JOINT LeftForeArm
						{
							OFFSET 24.179897 0.000000 0.000000
							CHANNELS 3 Xrotation Yrotation Zrotation
							JOINT LeftHand
							{
								OFFSET 27.156403 0.000000 0.000000
								CHANNELS 3 Xrotation Yrotation Zrotation
								JOINT LeftHandIndex1
								{
									OFFSET 16.441200 0.000000 0.000000
									CHANNELS 3 Xrotation Yrotation Zrotation
									JOINT LeftHandIndex2
									{
										OFFSET 4.821899 0.000000 0.000000
										CHANNELS 3 Xrotation Yrotation Zrotation
										JOINT LeftHandIndex3
										{
											OFFSET 6.386497 0.000000 0.000000
											CHANNELS 3 Xrotation Yrotation Zrotation
											JOINT LeftHandIndex4
											{
												OFFSET 5.188988 0.000000 0.000000
												CHANNELS 3 Xrotation Yrotation Zrotation
												End Site
												{
													OFFSET -0.178703 5.185913 0.000177
												}
											}
										}
									}
								}
								JOINT LeftHandThumb1
								{
									OFFSET 6.534897 -5.032593 5.900300
									CHANNELS 3 Xrotation Yrotation Zrotation
									JOINT LeftHandThumb2
									{
										OFFSET 3.818176 -2.204422 2.204423
										CHANNELS 3 Xrotation Yrotation Zrotation
										JOINT LeftHandThumb3
										{
											OFFSET 3.252098 -1.877594 1.877601
											CHANNELS 3 Xrotation Yrotation Zrotation
											JOINT LeftHandThumb4
											{
												OFFSET 5.251778 -3.032120 3.032117
												CHANNELS 3 Xrotation Yrotation Zrotation
												End Site
												{
													OFFSET 0.000023 6.780014 0.000000
												}
											}
										}
									}
								}
							}
						}
					}
				}
				JOINT RightShoulder
				{
					OFFSET -12.896300 26.716293 -4.548400
					CHANNELS 3 Xrotation Yrotation Zrotation
					JOINT RightArm
					{
						OFFSET -19.027000 -4.857010 -1.718400
						CHANNELS 3 Xrotation Yrotation Zrotation
						JOINT RightForeArm
						{
							OFFSET -24.179897 0.000000 0.000000
							CHANNELS 3 Xrotation Yrotation Zrotation
							JOINT RightHand
							{
								OFFSET -27.156403 0.000000 0.000000
								CHANNELS 3 Xrotation Yrotation Zrotation
								JOINT RightHandThumb1
								{
									OFFSET -6.591202 -4.852203 5.988100
									CHANNELS 3 Xrotation Yrotation Zrotation
									JOINT RightHandThumb2
									{
										OFFSET -3.818176 -2.204422 2.204423
										CHANNELS 3 Xrotation Yrotation Zrotation
										JOINT RightHandThumb3
										{
											OFFSET -3.252098 -1.877594 1.877601
											CHANNELS 3 Xrotation Yrotation Zrotation
											JOINT RightHandThumb4
											{
												OFFSET -5.251778 -3.032120 3.032117
												CHANNELS 3 Xrotation Yrotation Zrotation
												End Site
												{
													OFFSET -0.000023 6.780014 0.000000
												}
											}
										}
									}
								}
								JOINT RightHandIndex1
								{
									OFFSET -16.029404 0.000000 0.000000
									CHANNELS 3 Xrotation Yrotation Zrotation
									JOINT RightHandIndex2
									{
										OFFSET -5.213303 0.000000 0.000000
										CHANNELS 3 Xrotation Yrotation Zrotation
										JOINT RightHandIndex3
										{
											OFFSET -6.386528 0.000000 0.000000
											CHANNELS 3 Xrotation Yrotation Zrotation
											JOINT RightHandIndex4
											{
												OFFSET -5.189026 0.000000 0.000000
												CHANNELS 3 Xrotation Yrotation Zrotation
												End Site
												{
													OFFSET 0.236702 5.183624 0.001972
												}
											}
										}
									}
								}
							}
						}
					}
				}
			}
		}
	}
	JOINT LeftUpLeg
	{
		OFFSET 14.073000 -7.904099 -1.463000
		CHANNELS 3 Xrotation Yrotation Zrotation
		JOINT LeftLeg
		{
			OFFSET -0.109806 -34.073280 4.093200
			CHANNELS 3 Xrotation Yrotation Zrotation
			JOINT LeftFoot
			{
				OFFSET 0.109806 -29.899420 -6.319000
				CHANNELS 3 Xrotation Yrotation Zrotation
				JOINT LeftToeBase
				{
					OFFSET 1.551100 -14.988700 20.535801
					CHANNELS 3 Xrotation Yrotation Zrotation
					JOINT LeftToe_End
					{
						OFFSET 0.221200 0.570800 13.248301
						CHANNELS 3 Xrotation Yrotation Zrotation
						End Site
						{
							OFFSET 0.000000 13.262435 0.000000
						}
					}
				}
			}
		}
	}
	JOINT RightUpLeg
	{
		OFFSET -13.839300 -7.904099 -1.463000
		CHANNELS 3 Xrotation Yrotation Zrotation
		JOINT RightLeg
		{
			OFFSET 0.109694 -34.073219 4.093300
			CHANNELS 3 Xrotation Yrotation Zrotation
			JOINT RightFoot
			{
				OFFSET -0.109694 -29.899384 -6.319200
				CHANNELS 3 Xrotation Yrotation Zrotation
				JOINT RightToeBase
				{
					OFFSET -1.551100 -14.988700 20.535801
					CHANNELS 3 Xrotation Yrotation Zrotation
					JOINT RightToe_End
					{
						OFFSET -0.221200 0.570900 13.248299
						CHANNELS 3 Xrotation Yrotation Zrotation
						End Site
						{
							OFFSET 0.000000 13.262440 0.000000
						}
					}
				}
			}
		}
	}
}
MOTION
Frames: 4
Frame Time: 0.033333
3.573117 121.923508 8.859478 -32.207194 -5.947176 -4.575615 0.558324 0.182956 -0.534973 2.226450 0.182759 0.759535 2.223448 0.177168 0.775053 -19.136525 -1.807201 4.720774 -10.336522 0.337322 -7.147005 0.000002 -0.000000 -0.000000 2.024338 -7.818371 28.468946 -94.709835 -6.998375 -62.604155 -0.000010 -47.414808 0.000005 -83.410830 18.349583 -5.704012 0.036826 0.712650 -5.916046 0.555845 2.714930 -23.137447 0.140282 1.385607 -11.562137 -0.000002 -0.000000 -0.000001 19.112616 -10.068077 -3.308303 -0.800482 9.071017 -0.227980 -2.896146 2.163939 1.720157 -0.000003 0.000000 0.000001 0.685045 4.642070 -8.315700 -81.656892 18.055491 94.041091 -0.000280 95.719070 0.000288 -71.176090 -20.946498 -41.409258 13.141294 -0.215121 0.342217 40.390177 -2.024618 7.774798 16.850307 1.409059 0.242783 -0.000000 -0.000002 0.000001 3.444963 -6.004197 59.660883 1.154147 -3.841442 33.434421 0.294329 -2.005437 16.697842 0.000000 0.000001 0.000001 -0.098439 20.848406 12.622873 47.993069 7.299056 -7.384544 5.818976 0.097358 0.914145 0.000010 0.000004 -0.000003 0.000001 -0.000000 -0.000000 -12.848720 -8.446295 -17.512646 20.141244 9.053157 -4.915258 -6.320358 1.287173 4.102419 -0.000004 0.000004 0.000003 -0.000001 0.000001 0.000001 
4.711191 121.598061 9.611885 -28.720700 -4.055791 -3.517759 0.448116 -1.047697 0.806086 1.568567 -1.887663 2.611084 1.542165 -1.871964 2.641712 -21.965456 0.376730 0.854921 -10.169948 2.871481 -6.901998 0.000001 0.000000 -0.000000 1.116977 -4.850370 33.313793 -106.261126 -17.878423 -53.575860 0.000005 -20.625797 0.000008 -97.753688 18.181665 -8.148321 0.055873 0.877221 -7.289221 0.719857 3.070052 -26.386737 0.182207 1.576610 -13.183721 -0.000001 -0.000004 -0.000001 22.696351 -3.434589 -5.293056 1.739171 19.929906 0.549126 -1.610733 7.573326 2.369190 -0.000000 -0.000002 0.000002 1.034898 5.774161 -16.135291 -85.573883 14.796299 98.108277 0.000369 95.145075 -0.000364 -70.053781 -25.395490 -40.642692 11.574101 0.145881 0.376726 39.619192 2.660201 9.069876 16.735529 3.607997 1.000629 -0.000001 0.000001 0.000001 3.370557 -5.960243 58.946868 1.491056 -4.307357 38.173531 0.382579 -2.278859 19.058726 -0.000001 -0.000001 -0.000003 1.078882 20.137879 8.718389 40.703601 8.929074 -9.246494 8.366309 1.069994 -1.317802 0.000009 0.000005 -0.000002 0.000003 0.000001 -0.000001 -17.293860 -7.841993 -19.591233 18.698857 9.084352 -4.790352 -5.675286 4.041179 4.128706 -0.000007 0.000003 0.000002 -0.000000 0.000000 0.000001 
5.689671 121.506897 10.154934 -25.036458 -3.712474 -2.810254 1.006016 -2.327990 2.427915 1.464403 -3.808892 4.272523 1.377288 -3.832445 4.277234 -23.770947 2.296508 -2.086882 -11.937595 5.744516 -5.888203 0.000000 0.000000 0.000001 -0.152826 -1.054084 37.352915 -86.768305 -41.447135 -28.874030 0.000001 -0.131911 -0.000002 -112.433499 34.573612 -6.363721 0.473030 2.512481 -21.321405 1.215981 3.912302 -34.520056 0.310524 2.048313 -17.239259 -0.000001 0.000001 0.000001 24.266976 0.491135 -6.150558 3.411703 24.875392 -0.156855 -0.844742 10.037363 2.199234 0.000000 -0.000001 -0.000001 1.329465 6.335199 -21.657160 -93.191183 13.126059 102.323064 0.002075 95.507136 -0.002095 -69.083737 -30.501221 -42.972996 9.919263 0.570760 0.402413 39.575888 8.323572 11.251996 16.727277 6.864103 2.553009 0.000000 -0.000000 0.000001 3.614959 -6.099946 61.273046 2.038764 -4.922848 44.972496 0.528529 -2.663687 22.442422 0.000001 0.000001 0.000000 4.238891 19.019900 3.046999 29.667067 9.729978 -9.157364 11.003692 5.430635 -3.541036 0.000008 0.000006 -0.000002 0.000001 0.000000 0.000001 -21.394637 -7.233747 -20.823736 15.910939 8.974576 -4.392896 -4.435390 8.070961 3.686875 -0.000008 0.000003 -0.000000 -0.000001 -0.000000 -0.000002 
6.969089 120.886551 10.560699 -22.454863 -3.670388 -2.968608 1.317939 -2.692268 3.626867 1.359235 -4.123083 5.011233 1.236670 -4.186070 4.986291 -24.947543 2.627115 -2.324897 -13.615760 6.671125 -6.276508 -0.000002 0.000000 0.000001 -1.070617 1.388836 39.606826 -66.585998 -45.673151 -10.925107 0.000016 -0.031390 -0.000005 -118.352452 43.581446 12.076752 3.666322 6.087220 -62.090524 1.329651 4.072254 -36.152768 0.340268 2.141743 -18.052757 0.000002 0.000002 0.000002 24.796032 3.578956 -6.543224 6.541978 25.987364 -3.945121 0.412645 10.636225 0.605215 0.000002 -0.000000 -0.000000 0.898945 4.788677 -21.950312 -98.403007 13.404683 104.724975 0.002410 94.775063 -0.002410 -68.422185 -28.832199 -42.056029 8.219383 1.040186 0.419080 39.485395 6.323373 9.617982 16.763637 5.605138 1.409483 -0.000001 0.000001 0.000002 3.376155 -5.963587 59.000793 2.510022 -5.351390 50.231827 0.656718 -2.954637 25.057261 -0.000002 -0.000003 0.000002 7.685267 16.574627 -0.797814 19.447483 9.694389 -9.117495 12.856480 10.555263 -4.196817 0.000009 0.000003 -0.000003 -0.000002 -0.000000 -0.000001 -23.664519 -6.929695 -20.694751 13.021626 8.605447 -3.821347 -3.861608 11.172574 3.406391 -0.000006 0.000004 0.000000 0.000003 0.000000 0.000000 
